<svg xmlns="http://www.w3.org/2000/svg" width="60.75" height="50" viewBox="0 0 60.75 50">
  <g id="Grupo_24" data-name="Grupo 24" transform="translate(-289 -2620)">
    <circle id="Elipse_11" data-name="Elipse 11" cx="20" cy="20" r="20" transform="translate(289 2625)" fill="#094c8c"/>
    <g id="file-text2" transform="translate(304 2620)">
      <path id="Caminho_1030" data-name="Caminho 1030" d="M43.689,11.186a44.352,44.352,0,0,0-4.256-4.869,44.042,44.042,0,0,0-4.869-4.256C32.045.214,30.825,0,30.125,0H5.906A3.911,3.911,0,0,0,2,3.906V46.094A3.912,3.912,0,0,0,5.906,50H41.844a3.912,3.912,0,0,0,3.906-3.906V15.625c0-.7-.214-1.922-2.061-4.439ZM37.223,8.527A42.708,42.708,0,0,1,40.767,12.5H33.25V4.983A42.709,42.709,0,0,1,37.223,8.527Zm5.4,37.567a.792.792,0,0,1-.781.781H5.906a.792.792,0,0,1-.781-.781V3.906a.792.792,0,0,1,.781-.781H30.125V14.063a1.563,1.563,0,0,0,1.563,1.563H42.625Z" fill="#fff"/>
      <path id="Caminho_1031" data-name="Caminho 1031" d="M31.438,27.125H9.563a1.563,1.563,0,0,1,0-3.125H31.438a1.563,1.563,0,0,1,0,3.125Z" transform="translate(3.375 13.5)" fill="#fff"/>
      <path id="Caminho_1032" data-name="Caminho 1032" d="M31.438,23.125H9.563a1.563,1.563,0,0,1,0-3.125H31.438a1.563,1.563,0,0,1,0,3.125Z" transform="translate(3.375 11.25)" fill="#fff"/>
      <path id="Caminho_1033" data-name="Caminho 1033" d="M31.438,19.125H9.563a1.563,1.563,0,0,1,0-3.125H31.438a1.563,1.563,0,0,1,0,3.125Z" transform="translate(3.375 9)" fill="#fff"/>
    </g>
  </g>
</svg>
