<svg xmlns="http://www.w3.org/2000/svg" width="68.144" height="50" viewBox="0 0 68.144 50">
  <g id="Grupo_26" data-name="Grupo 26" transform="translate(-918 -2620)">
    <circle id="Elipse_13" data-name="Elipse 13" cx="20" cy="20" r="20" transform="translate(918 2625)" fill="#094c8c"/>
    <path id="bullhorn" d="M57.144,22.382c0-11.213-3.28-20.309-7.338-20.381l.048,0H45.226a72.74,72.74,0,0,1-26.52,11.37,48.668,48.668,0,0,0-.782,9.013,48.837,48.837,0,0,0,.782,9.013,72.74,72.74,0,0,1,26.52,11.37h4.629l-.048,0C53.864,42.692,57.144,33.6,57.144,22.382Zm-8.882,17.3a2.3,2.3,0,0,1-1.38-.868,11.542,11.542,0,0,1-1.964-3.534,37.663,37.663,0,0,1-2.013-12.9,37.671,37.671,0,0,1,2.013-12.9A11.542,11.542,0,0,1,46.882,5.95a2.3,2.3,0,0,1,1.38-.868,2.3,2.3,0,0,1,1.38.868,11.542,11.542,0,0,1,1.964,3.534,37.671,37.671,0,0,1,2.013,12.9,37.678,37.678,0,0,1-2.013,12.9,11.542,11.542,0,0,1-1.964,3.534A2.305,2.305,0,0,1,48.262,39.683Zm-34.209-17.3a54.734,54.734,0,0,1,.616-8.32,53.907,53.907,0,0,1-7.832.577H3.094L0,19.923v4.92l3.095,5.284H6.837a53.945,53.945,0,0,1,7.832.577,54.734,54.734,0,0,1-.616-8.32Zm6.493,11.882L13.4,32.9,17.971,50.84a1.49,1.49,0,0,0,2.046,1.041l6.616-2.648a1.524,1.524,0,0,0,.793-2.18ZM48.262,29.05a.887.887,0,0,1-.532-.334,4.436,4.436,0,0,1-.757-1.363,14.532,14.532,0,0,1-.775-4.971,14.532,14.532,0,0,1,.775-4.971,4.458,4.458,0,0,1,.757-1.363.591.591,0,0,1,1.064,0,4.436,4.436,0,0,1,.757,1.363,14.525,14.525,0,0,1,.775,4.971,14.532,14.532,0,0,1-.775,4.971,4.458,4.458,0,0,1-.757,1.363A.887.887,0,0,1,48.262,29.05Z" transform="translate(929 2618)" fill="#fff"/>
  </g>
</svg>
