<svg id="Grupo_2" data-name="Grupo 2" xmlns="http://www.w3.org/2000/svg" width="309.923" height="70" viewBox="0 0 309.923 70">
  <path id="Caminho_85" data-name="Caminho 85" d="M1142.715,232.319a3.552,3.552,0,0,1-1.171-.189,2.45,2.45,0,0,1-1.522-1.5,3.985,3.985,0,0,1-.01-2.538,2.69,2.69,0,0,1,.588-.958,2.5,2.5,0,0,1,.921-.59,3.33,3.33,0,0,1,1.2-.21,4.453,4.453,0,0,1,.647.041,4.239,4.239,0,0,1,.535.106,4.083,4.083,0,0,1,.466.163c.138.062.258.117.363.168v1.4h-.169c-.072-.062-.161-.135-.268-.22a4.189,4.189,0,0,0-.368-.251,2.715,2.715,0,0,0-.455-.207,1.58,1.58,0,0,0-.524-.085,1.766,1.766,0,0,0-.588.1,1.45,1.45,0,0,0-.517.329,1.591,1.591,0,0,0-.366.583,2.475,2.475,0,0,0-.141.88,2.326,2.326,0,0,0,.153.9,1.552,1.552,0,0,0,.379.572,1.37,1.37,0,0,0,.522.3,1.815,1.815,0,0,0,.565.091,1.761,1.761,0,0,0,.529-.08,2.123,2.123,0,0,0,.486-.22,2.825,2.825,0,0,0,.345-.238c.107-.085.194-.158.266-.22h.151v1.378c-.143.065-.279.127-.409.184a3.339,3.339,0,0,1-.409.148,4.929,4.929,0,0,1-.522.122A4.143,4.143,0,0,1,1142.715,232.319Z" transform="translate(-1022.083 -178.742)" fill="#fff"/>
  <path id="Caminho_86" data-name="Caminho 86" d="M1164.75,235.079a1.112,1.112,0,0,0,.2-.4,2.389,2.389,0,0,0,.069-.647,2.557,2.557,0,0,0-.069-.645,1.113,1.113,0,0,0-.192-.412.668.668,0,0,0-.294-.225,1.026,1.026,0,0,0-.371-.067,1.081,1.081,0,0,0-.355.054.717.717,0,0,0-.294.217,1.1,1.1,0,0,0-.2.414,2.53,2.53,0,0,0-.074.663,2.448,2.448,0,0,0,.066.616,1.093,1.093,0,0,0,.189.419.73.73,0,0,0,.294.223,1.062,1.062,0,0,0,.386.067,1.032,1.032,0,0,0,.358-.062A.671.671,0,0,0,1164.75,235.079Zm1.693-1.056a2.28,2.28,0,0,1-.616,1.688,2.739,2.739,0,0,1-3.468,0,2.618,2.618,0,0,1,0-3.384,2.747,2.747,0,0,1,3.471,0,2.314,2.314,0,0,1,.611,1.693Z" transform="translate(-1038.404 -182.728)" fill="#fff"/>
  <path id="Caminho_87" data-name="Caminho 87" d="M1188.3,236.239h-1.378v-2.157a4.484,4.484,0,0,0-.028-.526,1.193,1.193,0,0,0-.089-.386.463.463,0,0,0-.225-.207,1.026,1.026,0,0,0-.412-.067,1.229,1.229,0,0,0-.378.062,2.137,2.137,0,0,0-.42.2v3.084h-1.381v-4.348h1.381v.479a3.513,3.513,0,0,1,.7-.445,1.785,1.785,0,0,1,.752-.155,1.431,1.431,0,0,1,1.084.409,1.723,1.723,0,0,1,.391,1.23Z" transform="translate(-1054.964 -182.773)" fill="#fff"/>
  <path id="Caminho_88" data-name="Caminho 88" d="M1208.7,234.859a1.269,1.269,0,0,1-.6,1.088,2.844,2.844,0,0,1-1.634.412,4.611,4.611,0,0,1-1.041-.109,3.981,3.981,0,0,1-.749-.241v-1.145h.128c.069.049.148.1.238.161a2.6,2.6,0,0,0,.384.186,3.092,3.092,0,0,0,.486.153,2.473,2.473,0,0,0,.583.065,1.5,1.5,0,0,0,.6-.091.292.292,0,0,0,.2-.269.253.253,0,0,0-.115-.23,1.459,1.459,0,0,0-.437-.137c-.1-.023-.241-.049-.414-.075a4.793,4.793,0,0,1-.476-.1,1.665,1.665,0,0,1-.867-.484,1.2,1.2,0,0,1-.284-.813,1.237,1.237,0,0,1,.586-1.044,2.733,2.733,0,0,1,1.606-.417,4.311,4.311,0,0,1,.923.1,3.707,3.707,0,0,1,.688.212v1.1h-.118a2.84,2.84,0,0,0-.7-.344,2.394,2.394,0,0,0-.793-.135,1.484,1.484,0,0,0-.56.093c-.151.062-.228.15-.228.264a.291.291,0,0,0,.1.236,1.449,1.449,0,0,0,.486.161c.141.028.292.057.455.085s.325.06.486.1a1.531,1.531,0,0,1,.8.451,1.155,1.155,0,0,1,.261.769Z" transform="translate(-1070.362 -182.773)" fill="#fff"/>
  <path id="Caminho_89" data-name="Caminho 89" d="M1225.921,233.461a.976.976,0,0,0-.212-.658.816.816,0,0,0-.631-.22,1.014,1.014,0,0,0-.655.207.908.908,0,0,0-.287.671Zm1.371.818h-3.151a1,1,0,0,0,.384.779,1.687,1.687,0,0,0,1.041.272,2.315,2.315,0,0,0,.846-.158,2.562,2.562,0,0,0,.645-.342h.154v1.119a5.277,5.277,0,0,1-.877.277,4.559,4.559,0,0,1-.915.083,2.952,2.952,0,0,1-1.98-.588,2.077,2.077,0,0,1-.688-1.675,2.263,2.263,0,0,1,.652-1.706,2.457,2.457,0,0,1,1.785-.629,1.87,1.87,0,0,1,2.105,2.079v.489Z" transform="translate(-1083.811 -182.728)" fill="#fff"/>
  <path id="Caminho_90" data-name="Caminho 90" d="M1244.31,231.786h1.378V225.76h-1.378Z" transform="translate(-1099.857 -178.319)" fill="#fff"/>
  <path id="Caminho_91" data-name="Caminho 91" d="M1259.084,231.786H1257.7v-2.157a4.484,4.484,0,0,0-.028-.526,1.134,1.134,0,0,0-.089-.386.465.465,0,0,0-.225-.207,1.025,1.025,0,0,0-.412-.067,1.228,1.228,0,0,0-.378.062,2.127,2.127,0,0,0-.42.2v3.084h-1.381V225.76h1.381v2.157a3.517,3.517,0,0,1,.7-.445,1.786,1.786,0,0,1,.752-.155,1.441,1.441,0,0,1,1.087.409,1.724,1.724,0,0,1,.391,1.23Z" transform="translate(-1107.642 -178.319)" fill="#fff"/>
  <path id="Caminho_92" data-name="Caminho 92" d="M1278.37,235.079a1.158,1.158,0,0,0,.2-.4,2.4,2.4,0,0,0,.067-.647,2.563,2.563,0,0,0-.067-.645,1.113,1.113,0,0,0-.192-.412.669.669,0,0,0-.294-.225,1.037,1.037,0,0,0-.371-.067,1.083,1.083,0,0,0-.355.054.7.7,0,0,0-.294.217,1.1,1.1,0,0,0-.2.414,2.529,2.529,0,0,0-.074.663,2.575,2.575,0,0,0,.064.616,1.1,1.1,0,0,0,.192.419.739.739,0,0,0,.292.223,1.074,1.074,0,0,0,.388.067,1.031,1.031,0,0,0,.358-.062A.673.673,0,0,0,1278.37,235.079Zm1.693-1.056a2.27,2.27,0,0,1-.619,1.688,2.739,2.739,0,0,1-3.468,0,2.622,2.622,0,0,1,.005-3.384,2.743,2.743,0,0,1,3.468,0,2.3,2.3,0,0,1,.614,1.693Z" transform="translate(-1122.966 -182.728)" fill="#fff"/>
  <path id="Caminho_93" data-name="Caminho 93" d="M1311.564,228.526a.743.743,0,0,0-.089-.373.6.6,0,0,0-.3-.243,1.132,1.132,0,0,0-.348-.075c-.133-.01-.286-.013-.463-.013h-.529v1.551h.45a4.151,4.151,0,0,0,.588-.034.815.815,0,0,0,.4-.161.741.741,0,0,0,.223-.264.868.868,0,0,0,.072-.388Zm2.292,4h-1.8l-1.55-2.116h-.678v2.116h-1.463V226.76h2.463a5.575,5.575,0,0,1,.87.06,1.867,1.867,0,0,1,.68.251,1.5,1.5,0,0,1,.509.5,1.446,1.446,0,0,1,.189.774,1.737,1.737,0,0,1-.292,1.041,2.2,2.2,0,0,1-.836.671Z" transform="translate(-1147.534 -179.06)" fill="#fff"/>
  <path id="Caminho_94" data-name="Caminho 94" d="M1333.974,233.461a.98.98,0,0,0-.215-.658.815.815,0,0,0-.629-.22,1.009,1.009,0,0,0-.655.207.9.9,0,0,0-.286.671Zm1.368.818h-3.151a1,1,0,0,0,.384.779,1.7,1.7,0,0,0,1.043.272,2.3,2.3,0,0,0,.844-.158,2.635,2.635,0,0,0,.647-.342h.153v1.119a5.377,5.377,0,0,1-.88.277,4.545,4.545,0,0,1-.916.083,2.961,2.961,0,0,1-1.979-.588,2.084,2.084,0,0,1-.688-1.675,2.262,2.262,0,0,1,.652-1.706,2.467,2.467,0,0,1,1.788-.629,1.867,1.867,0,0,1,2.1,2.079v.489Z" transform="translate(-1164.228 -182.728)" fill="#fff"/>
  <path id="Caminho_95" data-name="Caminho 95" d="M1354.27,234.867V232.9a1.264,1.264,0,0,0-.289-.078,1.754,1.754,0,0,0-.309-.031,1.014,1.014,0,0,0-.813.316,1.318,1.318,0,0,0-.271.88,1.282,1.282,0,0,0,.23.875.9.9,0,0,0,.685.249,1.272,1.272,0,0,0,.4-.067A1.434,1.434,0,0,0,1354.27,234.867Zm1.381.873a2.694,2.694,0,0,1-.174,1.028,1.511,1.511,0,0,1-.481.655,1.98,1.98,0,0,1-.747.347,4.256,4.256,0,0,1-.99.106,7.141,7.141,0,0,1-.882-.054,6.736,6.736,0,0,1-.749-.132V236.6h.166a4.076,4.076,0,0,0,.616.184,3.006,3.006,0,0,0,.65.083,2.15,2.15,0,0,0,.619-.073.815.815,0,0,0,.366-.2.738.738,0,0,0,.171-.316,1.762,1.762,0,0,0,.054-.466v-.083a2.042,2.042,0,0,1-.55.326,1.8,1.8,0,0,1-.673.122,1.764,1.764,0,0,1-1.391-.552,2.462,2.462,0,0,1-.486-1.673,2.585,2.585,0,0,1,.148-.927,2.02,2.02,0,0,1,.42-.684,1.748,1.748,0,0,1,.621-.422,1.953,1.953,0,0,1,.754-.15,2.306,2.306,0,0,1,.632.083,2.092,2.092,0,0,1,.517.23l.051-.192h1.337Z" transform="translate(-1179.388 -182.773)" fill="#fff"/>
  <path id="Caminho_96" data-name="Caminho 96" d="M1375.04,231.786h-1.381v-4.348h1.381Zm.038-4.969h-1.458V225.76h1.458Z" transform="translate(-1196.097 -178.319)" fill="#fff"/>
  <path id="Caminho_97" data-name="Caminho 97" d="M1386.02,235.079a1.152,1.152,0,0,0,.2-.4,2.406,2.406,0,0,0,.066-.647,2.57,2.57,0,0,0-.066-.645,1.155,1.155,0,0,0-.192-.412.686.686,0,0,0-.294-.225,1.038,1.038,0,0,0-.371-.067,1.079,1.079,0,0,0-.355.054.7.7,0,0,0-.294.217,1.1,1.1,0,0,0-.2.414,2.419,2.419,0,0,0-.074.663,2.574,2.574,0,0,0,.064.616,1.1,1.1,0,0,0,.192.419.738.738,0,0,0,.292.223,1.073,1.073,0,0,0,.389.067,1.043,1.043,0,0,0,.358-.062A.673.673,0,0,0,1386.02,235.079Zm1.693-1.056a2.27,2.27,0,0,1-.619,1.688,2.739,2.739,0,0,1-3.468,0,2.622,2.622,0,0,1,0-3.384,2.743,2.743,0,0,1,3.468,0,2.3,2.3,0,0,1,.614,1.693Z" transform="translate(-1203.085 -182.728)" fill="#fff"/>
  <path id="Caminho_98" data-name="Caminho 98" d="M1409.572,236.239h-1.378v-2.157a5.085,5.085,0,0,0-.028-.526,1.129,1.129,0,0,0-.092-.386.459.459,0,0,0-.223-.207,1.026,1.026,0,0,0-.412-.067,1.246,1.246,0,0,0-.381.062,2.12,2.12,0,0,0-.417.2v3.084h-1.381v-4.348h1.381v.479a3.453,3.453,0,0,1,.7-.445,1.776,1.776,0,0,1,.752-.155,1.431,1.431,0,0,1,1.084.409,1.723,1.723,0,0,1,.391,1.23Z" transform="translate(-1219.645 -182.773)" fill="#fff"/>
  <path id="Caminho_99" data-name="Caminho 99" d="M1428.741,235.093v-.9c-.187.018-.389.039-.6.065a3,3,0,0,0-.494.1.658.658,0,0,0-.315.192.473.473,0,0,0-.11.329.861.861,0,0,0,.023.22.316.316,0,0,0,.115.161.534.534,0,0,0,.21.114,1.4,1.4,0,0,0,.384.036,1.106,1.106,0,0,0,.417-.083,1.283,1.283,0,0,0,.373-.225Zm0,.676c-.074.057-.166.127-.276.207a1.872,1.872,0,0,1-.309.189,1.852,1.852,0,0,1-.419.137,2.485,2.485,0,0,1-.478.044,1.452,1.452,0,0,1-1.026-.383,1.277,1.277,0,0,1-.412-.979,1.323,1.323,0,0,1,.21-.777,1.4,1.4,0,0,1,.6-.476,3.332,3.332,0,0,1,.949-.249c.376-.049.77-.085,1.174-.109v-.023a.5.5,0,0,0-.289-.5,2.117,2.117,0,0,0-.859-.137,2.435,2.435,0,0,0-.724.122c-.258.08-.442.145-.555.189h-.128v-1.051c.146-.039.381-.083.711-.137a6.284,6.284,0,0,1,.985-.078,3.029,3.029,0,0,1,1.7.365,1.3,1.3,0,0,1,.521,1.147v2.96h-1.366Z" transform="translate(-1234.947 -182.766)" fill="#fff"/>
  <path id="Caminho_100" data-name="Caminho 100" d="M1447.53,231.786h1.381V225.76h-1.381Z" transform="translate(-1251.104 -178.319)" fill="#fff"/>
  <path id="Caminho_101" data-name="Caminho 101" d="M1470.37,230.587V228.45a1.371,1.371,0,0,0-.3-.088,1.817,1.817,0,0,0-.294-.028.975.975,0,0,0-.813.344,1.493,1.493,0,0,0-.271.953,1.551,1.551,0,0,0,.217.927.812.812,0,0,0,.7.29,1.264,1.264,0,0,0,.4-.072A1.36,1.36,0,0,0,1470.37,230.587Zm1.381,1.2h-1.381v-.453a3.087,3.087,0,0,1-.665.432,1.722,1.722,0,0,1-.714.14,1.5,1.5,0,0,1-1.253-.611,2.637,2.637,0,0,1-.468-1.649,2.828,2.828,0,0,1,.156-.981,2.25,2.25,0,0,1,.435-.735,1.816,1.816,0,0,1,.629-.451,1.87,1.87,0,0,1,.742-.161,2.047,2.047,0,0,1,.632.083,4.514,4.514,0,0,1,.506.212V225.76h1.381v6.026Z" transform="translate(-1265.796 -178.319)" fill="#fff"/>
  <path id="Caminho_102" data-name="Caminho 102" d="M1491.814,233.461a.979.979,0,0,0-.215-.658.81.81,0,0,0-.629-.22,1.014,1.014,0,0,0-.655.207.9.9,0,0,0-.286.671Zm1.368.818h-3.148a.994.994,0,0,0,.384.779,1.686,1.686,0,0,0,1.041.272,2.316,2.316,0,0,0,.846-.158,2.609,2.609,0,0,0,.645-.342h.153v1.119a5.224,5.224,0,0,1-.88.277,4.517,4.517,0,0,1-.913.083,2.952,2.952,0,0,1-1.979-.588,2.077,2.077,0,0,1-.69-1.675,2.271,2.271,0,0,1,.652-1.706,2.466,2.466,0,0,1,1.787-.629,1.867,1.867,0,0,1,2.1,2.079v.489Z" transform="translate(-1281.701 -182.728)" fill="#fff"/>
  <path id="Caminho_103" data-name="Caminho 103" d="M1525.088,232.527h-4.117V226.76h4.117v1.116h-2.657v.994h2.465v1.116h-2.465v1.424h2.657Z" transform="translate(-1305.762 -179.06)" fill="#fff"/>
  <path id="Caminho_104" data-name="Caminho 104" d="M1545.9,236.239h-1.379v-2.157a5.119,5.119,0,0,0-.028-.526,1.123,1.123,0,0,0-.092-.386.453.453,0,0,0-.225-.207,1.014,1.014,0,0,0-.409-.067,1.234,1.234,0,0,0-.381.062,2.129,2.129,0,0,0-.419.2v3.084h-1.379v-4.348h1.379v.479a3.525,3.525,0,0,1,.706-.445,1.774,1.774,0,0,1,.749-.155,1.437,1.437,0,0,1,1.087.409,1.723,1.723,0,0,1,.391,1.23Z" transform="translate(-1321.109 -182.773)" fill="#fff"/>
  <path id="Caminho_105" data-name="Caminho 105" d="M1565.3,234.867V232.9a1.248,1.248,0,0,0-.292-.078,1.727,1.727,0,0,0-.307-.031,1.014,1.014,0,0,0-.813.316,1.305,1.305,0,0,0-.271.88,1.282,1.282,0,0,0,.23.875.9.9,0,0,0,.685.249,1.272,1.272,0,0,0,.4-.067A1.425,1.425,0,0,0,1565.3,234.867Zm1.381.873a2.7,2.7,0,0,1-.171,1.028,1.536,1.536,0,0,1-.484.655,1.978,1.978,0,0,1-.747.347,4.254,4.254,0,0,1-.99.106,7.07,7.07,0,0,1-.88-.054,6.672,6.672,0,0,1-.752-.132V236.6h.166a4.081,4.081,0,0,0,.616.184,2.987,2.987,0,0,0,.65.083,2.151,2.151,0,0,0,.619-.073.815.815,0,0,0,.366-.2.737.737,0,0,0,.171-.316,1.768,1.768,0,0,0,.054-.466v-.083a2.077,2.077,0,0,1-.55.326,1.8,1.8,0,0,1-.673.122,1.755,1.755,0,0,1-1.389-.552,2.448,2.448,0,0,1-.491-1.673,2.585,2.585,0,0,1,.151-.927,2.02,2.02,0,0,1,.419-.684,1.784,1.784,0,0,1,.619-.422,1.985,1.985,0,0,1,.757-.15,2.294,2.294,0,0,1,.632.083,2.085,2.085,0,0,1,.516.23l.049-.192h1.34Z" transform="translate(-1336.448 -182.773)" fill="#fff"/>
  <path id="Caminho_106" data-name="Caminho 106" d="M1586.754,233.461a.98.98,0,0,0-.213-.658.816.816,0,0,0-.632-.22,1.014,1.014,0,0,0-.655.207.906.906,0,0,0-.287.671Zm1.371.818h-3.153a1,1,0,0,0,.386.779,1.687,1.687,0,0,0,1.041.272,2.316,2.316,0,0,0,.846-.158,2.611,2.611,0,0,0,.645-.342h.154v1.119a5.225,5.225,0,0,1-.88.277,4.517,4.517,0,0,1-.913.083,2.952,2.952,0,0,1-1.979-.588,2.078,2.078,0,0,1-.69-1.675,2.262,2.262,0,0,1,.652-1.706,2.467,2.467,0,0,1,1.788-.629,1.87,1.87,0,0,1,2.1,2.079Z" transform="translate(-1352.36 -182.728)" fill="#fff"/>
  <path id="Caminho_107" data-name="Caminho 107" d="M1609.462,236.239h-1.381v-2.157a5.189,5.189,0,0,0-.026-.526,1.123,1.123,0,0,0-.092-.386.453.453,0,0,0-.225-.207,1.021,1.021,0,0,0-.409-.067,1.233,1.233,0,0,0-.381.062,2.133,2.133,0,0,0-.42.2v3.084h-1.378v-4.348h1.378v.479a3.526,3.526,0,0,1,.706-.445,1.772,1.772,0,0,1,.749-.155,1.436,1.436,0,0,1,1.087.409,1.722,1.722,0,0,1,.392,1.23Z" transform="translate(-1368.414 -182.773)" fill="#fff"/>
  <path id="Caminho_108" data-name="Caminho 108" d="M1631.272,231.786h-1.378v-2.157c0-.176-.01-.352-.026-.526a1.176,1.176,0,0,0-.094-.386.446.446,0,0,0-.223-.207,1.025,1.025,0,0,0-.412-.067,1.219,1.219,0,0,0-.379.062,2.135,2.135,0,0,0-.419.2v3.084h-1.381V225.76h1.381v2.157a3.446,3.446,0,0,1,.7-.445,1.777,1.777,0,0,1,.752-.155,1.442,1.442,0,0,1,1.087.409,1.722,1.722,0,0,1,.389,1.23Z" transform="translate(-1384.646 -178.319)" fill="#fff"/>
  <path id="Caminho_109" data-name="Caminho 109" d="M1650.441,235.093v-.9c-.187.018-.386.039-.6.065a2.99,2.99,0,0,0-.494.1.678.678,0,0,0-.317.192.483.483,0,0,0-.108.329.849.849,0,0,0,.023.22.313.313,0,0,0,.115.161.534.534,0,0,0,.21.114,1.39,1.39,0,0,0,.381.036,1.1,1.1,0,0,0,.419-.083,1.282,1.282,0,0,0,.373-.225Zm0,.676c-.074.057-.166.127-.276.207a1.877,1.877,0,0,1-.309.189,1.852,1.852,0,0,1-.42.137,2.483,2.483,0,0,1-.478.044,1.447,1.447,0,0,1-1.026-.383,1.276,1.276,0,0,1-.412-.979,1.322,1.322,0,0,1,.21-.777,1.388,1.388,0,0,1,.6-.476,3.355,3.355,0,0,1,.949-.249c.378-.049.767-.085,1.174-.109v-.023a.5.5,0,0,0-.292-.5,2.08,2.08,0,0,0-.854-.137,2.462,2.462,0,0,0-.729.122c-.256.08-.44.145-.553.189h-.128v-1.051c.146-.039.381-.083.711-.137a6.282,6.282,0,0,1,.985-.078,3.028,3.028,0,0,1,1.7.365,1.3,1.3,0,0,1,.522,1.147v2.96h-1.366Z" transform="translate(-1399.948 -182.766)" fill="#fff"/>
  <path id="Caminho_110" data-name="Caminho 110" d="M1672.343,233.514h-.123a1.224,1.224,0,0,0-.284-.047q-.192-.016-.322-.016a3.081,3.081,0,0,0-.519.039,2.918,2.918,0,0,0-.486.132v2.913h-1.378v-4.348h1.378v.637a2.917,2.917,0,0,1,.79-.523,1.706,1.706,0,0,1,.619-.132c.049,0,.1,0,.164.005a1.366,1.366,0,0,1,.161.013Z" transform="translate(-1416.106 -183.069)" fill="#fff"/>
  <path id="Caminho_111" data-name="Caminho 111" d="M1685.72,231.786h-1.381v-4.348h1.381Zm.038-4.969H1684.3V225.76h1.458Z" transform="translate(-1427.322 -178.319)" fill="#fff"/>
  <path id="Caminho_112" data-name="Caminho 112" d="M1696.581,235.093v-.9c-.187.018-.386.039-.6.065a2.985,2.985,0,0,0-.494.1.655.655,0,0,0-.315.192.472.472,0,0,0-.11.329.868.868,0,0,0,.023.22.315.315,0,0,0,.115.161.532.532,0,0,0,.21.114,1.4,1.4,0,0,0,.384.036,1.106,1.106,0,0,0,.417-.083,1.288,1.288,0,0,0,.373-.225Zm0,.676c-.074.057-.166.127-.276.207a1.872,1.872,0,0,1-.309.189,1.813,1.813,0,0,1-.419.137,2.489,2.489,0,0,1-.478.044,1.451,1.451,0,0,1-1.025-.383,1.276,1.276,0,0,1-.412-.979,1.325,1.325,0,0,1,.21-.777,1.406,1.406,0,0,1,.6-.476,3.331,3.331,0,0,1,.949-.249c.376-.049.77-.085,1.174-.109v-.023a.5.5,0,0,0-.289-.5,2.117,2.117,0,0,0-.859-.137,2.432,2.432,0,0,0-.724.122c-.258.08-.443.145-.555.189h-.128v-1.051c.146-.039.384-.083.711-.137a6.283,6.283,0,0,1,.985-.078,3.029,3.029,0,0,1,1.7.365,1.3,1.3,0,0,1,.522,1.147v2.96h-1.366Z" transform="translate(-1434.288 -182.766)" fill="#fff"/>
  <path id="Caminho_113" data-name="Caminho 113" d="M1124.134,270.21a1,1,0,0,0-.212-.66.817.817,0,0,0-.632-.22,1,1,0,0,0-.655.21.9.9,0,0,0-.287.671Zm1.371.816h-3.153a1.014,1.014,0,0,0,.386.782,1.687,1.687,0,0,0,1.041.272,2.294,2.294,0,0,0,.844-.161,2.465,2.465,0,0,0,.647-.339h.153V272.7a4.979,4.979,0,0,1-.88.274,4.489,4.489,0,0,1-.913.085,2.978,2.978,0,0,1-1.982-.588,2.094,2.094,0,0,1-.688-1.678,2.256,2.256,0,0,1,.652-1.7,2.467,2.467,0,0,1,1.788-.629,1.87,1.87,0,0,1,2.1,2.079Z" transform="translate(-1008.053 -209.962)" fill="#fff"/>
  <path id="Caminho_114" data-name="Caminho 114" d="M1154.432,267.052l-.7-2.066-.7,2.066Zm2.266,2.222h-1.517l-.4-1.165h-2.107l-.4,1.165H1150.8l2.1-5.764h1.69Z" transform="translate(-1030.262 -206.294)" fill="#fff"/>
  <path id="Caminho_115" data-name="Caminho 115" d="M1178.67,271.617v-1.971a1.352,1.352,0,0,0-.289-.08,1.735,1.735,0,0,0-.31-.028,1.015,1.015,0,0,0-.813.316,1.664,1.664,0,0,0-.041,1.756.905.905,0,0,0,.686.249,1.259,1.259,0,0,0,.4-.067A1.513,1.513,0,0,0,1178.67,271.617Zm1.381.87a2.711,2.711,0,0,1-.171,1.031,1.513,1.513,0,0,1-.483.653,1.923,1.923,0,0,1-.747.347,4.122,4.122,0,0,1-.99.106,7.063,7.063,0,0,1-.88-.052,6.754,6.754,0,0,1-.752-.132v-1.088h.166a4.784,4.784,0,0,0,.616.184,3,3,0,0,0,.65.083,2.244,2.244,0,0,0,.619-.073.8.8,0,0,0,.366-.2.727.727,0,0,0,.171-.318,1.755,1.755,0,0,0,.054-.464v-.083a2.04,2.04,0,0,1-.55.326,1.791,1.791,0,0,1-.673.119,1.762,1.762,0,0,1-1.389-.549,2.451,2.451,0,0,1-.489-1.673,2.6,2.6,0,0,1,.148-.93,2.052,2.052,0,0,1,.419-.681,1.749,1.749,0,0,1,.619-.422,1.979,1.979,0,0,1,.754-.15,2.216,2.216,0,0,1,.634.083,1.957,1.957,0,0,1,.517.23l.051-.194h1.337Z" transform="translate(-1048.698 -210.007)" fill="#fff"/>
  <path id="Caminho_116" data-name="Caminho 116" d="M1201.282,270.264h-.123a1.2,1.2,0,0,0-.281-.047c-.13-.01-.238-.016-.325-.016a3.1,3.1,0,0,0-.519.039,2.909,2.909,0,0,0-.484.132v2.911h-1.381v-4.348h1.381v.64a2.8,2.8,0,0,1,.79-.526,1.74,1.74,0,0,1,.616-.129c.049,0,.1,0,.164.005a1.38,1.38,0,0,1,.161.01Z" transform="translate(-1065.517 -210.303)" fill="#fff"/>
  <path id="Caminho_117" data-name="Caminho 117" d="M1215.177,271.826a1.078,1.078,0,0,0,.2-.4,3.111,3.111,0,0,0,0-1.292,1.124,1.124,0,0,0-.192-.414.655.655,0,0,0-.294-.225,1.014,1.014,0,0,0-.371-.065,1.055,1.055,0,0,0-.353.054.708.708,0,0,0-.3.217,1.077,1.077,0,0,0-.2.414,2.4,2.4,0,0,0-.077.66,2.6,2.6,0,0,0,.066.619,1.092,1.092,0,0,0,.192.42.729.729,0,0,0,.291.22,1.014,1.014,0,0,0,.389.07.963.963,0,0,0,.356-.065A.636.636,0,0,0,1215.177,271.826Zm1.7-1.056a2.287,2.287,0,0,1-.619,1.691,2.747,2.747,0,0,1-3.468,0,2.626,2.626,0,0,1,.005-3.387,2.747,2.747,0,0,1,3.468.005A2.294,2.294,0,0,1,1216.873,270.77Z" transform="translate(-1075.937 -209.962)" fill="#fff"/>
  <path id="Caminho_118" data-name="Caminho 118" d="M1238.725,272.987h-1.381V270.83a5.1,5.1,0,0,0-.026-.523,1.106,1.106,0,0,0-.092-.386.458.458,0,0,0-.225-.21,1.019,1.019,0,0,0-.409-.065,1.233,1.233,0,0,0-.381.062,2.059,2.059,0,0,0-.42.2v3.081h-1.381v-4.348h1.381v.479a3.584,3.584,0,0,1,.706-.445,1.814,1.814,0,0,1,.749-.153,1.437,1.437,0,0,1,1.087.409,1.719,1.719,0,0,1,.391,1.227Z" transform="translate(-1092.489 -210.007)" fill="#fff"/>
  <path id="Caminho_119" data-name="Caminho 119" d="M1258.01,271.826a1.126,1.126,0,0,0,.2-.4,3.111,3.111,0,0,0,0-1.292,1.134,1.134,0,0,0-.192-.414.671.671,0,0,0-.294-.225,1.026,1.026,0,0,0-.371-.065,1.083,1.083,0,0,0-.356.054.72.72,0,0,0-.294.217,1.078,1.078,0,0,0-.2.414,2.514,2.514,0,0,0-.074.66,2.6,2.6,0,0,0,.064.619,1.1,1.1,0,0,0,.192.42.722.722,0,0,0,.294.22,1.008,1.008,0,0,0,.386.07.977.977,0,0,0,.358-.065A.638.638,0,0,0,1258.01,271.826Zm1.693-1.056a2.285,2.285,0,0,1-.616,1.691,2.747,2.747,0,0,1-3.468,0,2.622,2.622,0,0,1,0-3.387,2.359,2.359,0,0,1,1.732-.614,2.329,2.329,0,0,1,1.736.619A2.294,2.294,0,0,1,1259.7,270.77Z" transform="translate(-1107.813 -209.962)" fill="#fff"/>
  <path id="Caminho_120" data-name="Caminho 120" d="M1281.429,269.905v3.081h-1.381v-2.173c0-.21,0-.391-.015-.539a.918.918,0,0,0-.084-.363.421.421,0,0,0-.207-.2.981.981,0,0,0-.391-.062,1,1,0,0,0-.394.083,2.7,2.7,0,0,0-.345.176v3.081h-1.381v-4.348h1.381v.479a3.887,3.887,0,0,1,.68-.44,1.608,1.608,0,0,1,.719-.158,1.431,1.431,0,0,1,.749.192,1.314,1.314,0,0,1,.506.562,4.192,4.192,0,0,1,.8-.554,1.634,1.634,0,0,1,.762-.2,1.31,1.31,0,0,1,1.056.422,1.816,1.816,0,0,1,.361,1.214v2.83h-1.381v-2.173c0-.212,0-.394-.013-.541a.919.919,0,0,0-.082-.36.412.412,0,0,0-.207-.2,1.017,1.017,0,0,0-.4-.062.948.948,0,0,0-.338.06A2.461,2.461,0,0,0,1281.429,269.905Z" transform="translate(-1124.358 -210.007)" fill="#fff"/>
  <path id="Caminho_121" data-name="Caminho 121" d="M1310.919,268.533h-1.381v-4.348h1.381Zm.038-4.967H1309.5V262.51h1.458Z" transform="translate(-1148.375 -205.553)" fill="#fff"/>
  <path id="Caminho_122" data-name="Caminho 122" d="M1321.781,271.835v-.9c-.184.016-.386.036-.6.065a2.789,2.789,0,0,0-.494.093.68.68,0,0,0-.314.192.49.49,0,0,0-.11.329.863.863,0,0,0,.023.22.333.333,0,0,0,.115.163.553.553,0,0,0,.209.114,1.515,1.515,0,0,0,.384.036,1.1,1.1,0,0,0,.417-.085A1.245,1.245,0,0,0,1321.781,271.835Zm0,.676c-.074.057-.163.127-.273.2a2.156,2.156,0,0,1-.309.192,2.011,2.011,0,0,1-.422.137,2.489,2.489,0,0,1-.478.044,1.441,1.441,0,0,1-1.023-.383,1.279,1.279,0,0,1-.414-.981,1.328,1.328,0,0,1,.21-.777,1.415,1.415,0,0,1,.6-.477,3.4,3.4,0,0,1,.946-.249c.379-.047.77-.083,1.174-.106v-.023a.508.508,0,0,0-.289-.5,2.105,2.105,0,0,0-.857-.137,2.379,2.379,0,0,0-.726.124c-.258.08-.442.142-.555.187h-.125v-1.049c.143-.039.381-.085.708-.137a5.985,5.985,0,0,1,.984-.08,3.029,3.029,0,0,1,1.7.365,1.312,1.312,0,0,1,.522,1.15v2.957h-1.366Z" transform="translate(-1155.341 -209.992)" fill="#fff"/>
  <path id="Caminho_123" data-name="Caminho 123" d="M1352.939,267.337V265.2a1.3,1.3,0,0,0-.3-.091,1.765,1.765,0,0,0-.294-.026.969.969,0,0,0-.811.342,1.5,1.5,0,0,0-.271.953,1.559,1.559,0,0,0,.218.93.814.814,0,0,0,.7.287,1.2,1.2,0,0,0,.4-.072,1.332,1.332,0,0,0,.368-.186Zm1.381,1.2h-1.381v-.453a2.883,2.883,0,0,1-.662.432,1.685,1.685,0,0,1-.716.14,1.491,1.491,0,0,1-1.25-.611,2.631,2.631,0,0,1-.471-1.649,2.848,2.848,0,0,1,.159-.981,2.278,2.278,0,0,1,.432-.733,1.772,1.772,0,0,1,.632-.451,1.818,1.818,0,0,1,.742-.16,1.982,1.982,0,0,1,.632.083,3.849,3.849,0,0,1,.5.21V262.51h1.381v6.023Z" transform="translate(-1178.398 -205.553)" fill="#fff"/>
  <path id="Caminho_124" data-name="Caminho 124" d="M1374.394,270.21a.986.986,0,0,0-.215-.66.817.817,0,0,0-.632-.22.993.993,0,0,0-.652.21.887.887,0,0,0-.286.671Zm1.368.816h-3.151a1.006,1.006,0,0,0,.386.782,1.687,1.687,0,0,0,1.041.272,2.328,2.328,0,0,0,.847-.161,2.573,2.573,0,0,0,.644-.339h.153V272.7a5.05,5.05,0,0,1-.88.274,4.535,4.535,0,0,1-.916.085,2.97,2.97,0,0,1-1.979-.588,2.093,2.093,0,0,1-.688-1.678,2.254,2.254,0,0,1,.652-1.7,2.466,2.466,0,0,1,1.787-.629,1.867,1.867,0,0,1,2.1,2.079v.487Z" transform="translate(-1194.31 -209.962)" fill="#fff"/>
  <path id="Caminho_125" data-name="Caminho 125" d="M1409.517,269.274h-1.46v-3.861L1407,267.92h-1.013l-1.056-2.507v3.861h-1.384V263.51h1.706l1.279,2.892,1.279-2.892h1.7Z" transform="translate(-1218.372 -206.294)" fill="#fff"/>
  <path id="Caminho_126" data-name="Caminho 126" d="M1433.933,271.835v-.9c-.187.016-.389.036-.606.065a2.787,2.787,0,0,0-.494.093.691.691,0,0,0-.314.192.476.476,0,0,0-.11.329.875.875,0,0,0,.023.22.334.334,0,0,0,.115.163.534.534,0,0,0,.21.114,1.512,1.512,0,0,0,.384.036,1.126,1.126,0,0,0,.42-.085A1.313,1.313,0,0,0,1433.933,271.835Zm0,.676c-.077.057-.166.127-.276.2a2.033,2.033,0,0,1-.312.192,1.943,1.943,0,0,1-.419.137,2.491,2.491,0,0,1-.478.044,1.451,1.451,0,0,1-1.025-.383,1.286,1.286,0,0,1-.412-.981,1.347,1.347,0,0,1,.21-.777,1.415,1.415,0,0,1,.6-.477,3.4,3.4,0,0,1,.946-.249c.379-.047.77-.083,1.176-.106v-.023a.505.505,0,0,0-.291-.5,2.1,2.1,0,0,0-.857-.137,2.365,2.365,0,0,0-.726.124c-.258.08-.442.142-.555.187h-.128v-1.049c.148-.039.384-.085.711-.137a5.993,5.993,0,0,1,.985-.08,3.029,3.029,0,0,1,1.7.365,1.312,1.312,0,0,1,.522,1.15v2.957h-1.363Z" transform="translate(-1238.809 -209.992)" fill="#fff"/>
  <path id="Caminho_127" data-name="Caminho 127" d="M1454.053,269.732a3.623,3.623,0,0,1-.471.091,4.5,4.5,0,0,1-.609.034,1.838,1.838,0,0,1-1.194-.329,1.4,1.4,0,0,1-.394-1.126v-2.033h-.565v-.945h.565V264.18h1.381v1.243h1.286v.945h-1.286v1.543c0,.153,0,.285.005.4a.771.771,0,0,0,.061.306.411.411,0,0,0,.187.215.785.785,0,0,0,.4.08,1.567,1.567,0,0,0,.522-.132h.115Z" transform="translate(-1253.553 -206.791)" fill="#fff"/>
  <path id="Caminho_128" data-name="Caminho 128" d="M1468.45,271.826a1.12,1.12,0,0,0,.2-.4,3.109,3.109,0,0,0,0-1.292,1.126,1.126,0,0,0-.192-.414.667.667,0,0,0-.294-.225,1.024,1.024,0,0,0-.371-.065,1.053,1.053,0,0,0-.353.054.724.724,0,0,0-.3.217,1.107,1.107,0,0,0-.2.414,2.5,2.5,0,0,0-.074.66,2.582,2.582,0,0,0,.066.619,1.1,1.1,0,0,0,.189.42.723.723,0,0,0,.294.22,1.01,1.01,0,0,0,.386.07.973.973,0,0,0,.358-.065A.637.637,0,0,0,1468.45,271.826Zm1.693-1.056a2.286,2.286,0,0,1-.617,1.691,2.747,2.747,0,0,1-3.468,0,2.622,2.622,0,0,1,0-3.387,2.751,2.751,0,0,1,3.47.005A2.3,2.3,0,0,1,1470.143,270.77Z" transform="translate(-1264.434 -209.962)" fill="#fff"/>
  <path id="Caminho_129" data-name="Caminho 129" d="M1502.528,268.619a7.91,7.91,0,0,1-1.013.3,5.525,5.525,0,0,1-1.258.148,3.123,3.123,0,0,1-2.276-.8,3.314,3.314,0,0,1,.008-4.376,3.141,3.141,0,0,1,2.315-.823,5.471,5.471,0,0,1,1.069.1,4.687,4.687,0,0,1,1.133.409v1.352h-.164c-.072-.054-.177-.132-.315-.23a3.582,3.582,0,0,0-.4-.254,2.392,2.392,0,0,0-.517-.212,2.16,2.16,0,0,0-.629-.091,2.044,2.044,0,0,0-.708.117,1.6,1.6,0,0,0-.568.357,1.58,1.58,0,0,0-.381.588,2.246,2.246,0,0,0-.141.829,1.769,1.769,0,0,0,1.982,1.971c.056,0,.118,0,.184-.005s.131-.005.187-.01v-1.132H1499.9v-1.088h2.629Z" transform="translate(-1288.042 -205.968)" fill="#fff"/>
  <path id="Caminho_130" data-name="Caminho 130" d="M1526.1,270.264h-.123a1.221,1.221,0,0,0-.284-.047c-.128-.01-.235-.016-.325-.016a3.1,3.1,0,0,0-.519.039,2.973,2.973,0,0,0-.483.132v2.911h-1.381v-4.348h1.381v.64a2.871,2.871,0,0,1,.79-.526,1.752,1.752,0,0,1,.619-.129c.046,0,.1,0,.164.005a1.464,1.464,0,0,1,.161.01Z" transform="translate(-1307.266 -210.303)" fill="#fff"/>
  <path id="Caminho_131" data-name="Caminho 131" d="M1540,271.826a1.126,1.126,0,0,0,.2-.4,3.114,3.114,0,0,0,0-1.292,1.174,1.174,0,0,0-.189-.414.691.691,0,0,0-.3-.225,1.014,1.014,0,0,0-.371-.065,1.066,1.066,0,0,0-.353.054.709.709,0,0,0-.3.217,1.072,1.072,0,0,0-.2.414,2.389,2.389,0,0,0-.077.66,2.6,2.6,0,0,0,.066.619,1.1,1.1,0,0,0,.192.42.716.716,0,0,0,.292.22,1.013,1.013,0,0,0,.389.07.964.964,0,0,0,.356-.065A.636.636,0,0,0,1540,271.826Zm1.7-1.056a2.287,2.287,0,0,1-.619,1.691,2.748,2.748,0,0,1-3.468,0,2.627,2.627,0,0,1,.005-3.387,2.748,2.748,0,0,1,3.468.005A2.3,2.3,0,0,1,1541.693,270.77Z" transform="translate(-1317.685 -209.962)" fill="#fff"/>
  <path id="Caminho_132" data-name="Caminho 132" d="M1562.13,271.609a1.265,1.265,0,0,1-.6,1.085,2.845,2.845,0,0,1-1.634.412,4.567,4.567,0,0,1-1.038-.109,3.8,3.8,0,0,1-.752-.238v-1.147h.128c.067.049.148.1.238.161a2.364,2.364,0,0,0,.386.189,2.915,2.915,0,0,0,.486.153,2.572,2.572,0,0,0,.58.065,1.473,1.473,0,0,0,.6-.093.288.288,0,0,0,.194-.269.248.248,0,0,0-.115-.228,1.388,1.388,0,0,0-.437-.137q-.154-.035-.415-.078a4.149,4.149,0,0,1-.476-.1,1.682,1.682,0,0,1-.867-.482,1.2,1.2,0,0,1-.284-.816,1.243,1.243,0,0,1,.586-1.044,2.732,2.732,0,0,1,1.606-.414,4.14,4.14,0,0,1,.923.1,3.545,3.545,0,0,1,.688.21v1.1h-.118a2.757,2.757,0,0,0-.7-.347,2.463,2.463,0,0,0-.793-.135,1.475,1.475,0,0,0-.56.093c-.151.062-.228.15-.228.264a.275.275,0,0,0,.1.236,1.391,1.391,0,0,0,.484.163c.14.029.291.057.455.083s.322.062.486.1a1.521,1.521,0,0,1,.8.451A1.145,1.145,0,0,1,1562.13,271.609Z" transform="translate(-1333.404 -210.007)" fill="#fff"/>
  <path id="Caminho_133" data-name="Caminho 133" d="M1580.3,271.609a1.26,1.26,0,0,1-.6,1.085,2.831,2.831,0,0,1-1.632.412,4.59,4.59,0,0,1-1.041-.109,3.752,3.752,0,0,1-.749-.238v-1.147h.125c.069.049.151.1.24.161a2.243,2.243,0,0,0,.384.189,3,3,0,0,0,.486.153,2.608,2.608,0,0,0,.58.065,1.467,1.467,0,0,0,.6-.093.285.285,0,0,0,.194-.269.248.248,0,0,0-.115-.228,1.341,1.341,0,0,0-.435-.137q-.154-.035-.414-.078a3.942,3.942,0,0,1-.476-.1,1.691,1.691,0,0,1-.869-.482,1.2,1.2,0,0,1-.281-.816,1.244,1.244,0,0,1,.586-1.044,2.73,2.73,0,0,1,1.6-.414,4.124,4.124,0,0,1,.923.1,3.644,3.644,0,0,1,.69.21v1.1h-.118a2.759,2.759,0,0,0-.7-.347,2.476,2.476,0,0,0-.793-.135,1.474,1.474,0,0,0-.56.093c-.151.062-.228.15-.228.264a.28.28,0,0,0,.1.236,1.386,1.386,0,0,0,.486.163c.141.029.291.057.453.083s.325.062.488.1a1.541,1.541,0,0,1,.8.451,1.144,1.144,0,0,1,.258.769Z" transform="translate(-1346.927 -210.007)" fill="#fff"/>
  <path id="Caminho_134" data-name="Caminho 134" d="M1597.35,271.826a1.078,1.078,0,0,0,.2-.4,2.406,2.406,0,0,0,.069-.65,2.524,2.524,0,0,0-.072-.642,1.091,1.091,0,0,0-.189-.414.677.677,0,0,0-.3-.225,1,1,0,0,0-.371-.065,1.076,1.076,0,0,0-.353.054.726.726,0,0,0-.3.217,1.07,1.07,0,0,0-.2.414,2.4,2.4,0,0,0-.074.66,2.605,2.605,0,0,0,.064.619,1.1,1.1,0,0,0,.192.42.731.731,0,0,0,.292.22,1.024,1.024,0,0,0,.389.07.985.985,0,0,0,.358-.065A.651.651,0,0,0,1597.35,271.826Zm1.693-1.056a2.286,2.286,0,0,1-.616,1.691,2.747,2.747,0,0,1-3.468,0,2.622,2.622,0,0,1,0-3.387,2.747,2.747,0,0,1,3.468.005A2.294,2.294,0,0,1,1599.043,270.77Z" transform="translate(-1360.368 -209.962)" fill="#fff"/>
  <path id="Caminho_135" data-name="Caminho 135" d="M1628.96,267.337V265.2a1.3,1.3,0,0,0-.3-.091,1.745,1.745,0,0,0-.294-.026.969.969,0,0,0-.811.342,1.5,1.5,0,0,0-.271.953,1.559,1.559,0,0,0,.218.93.814.814,0,0,0,.7.287,1.193,1.193,0,0,0,.4-.072A1.339,1.339,0,0,0,1628.96,267.337Zm1.381,1.2h-1.381v-.453a2.891,2.891,0,0,1-.662.432,1.686,1.686,0,0,1-.716.14,1.494,1.494,0,0,1-1.25-.611,2.63,2.63,0,0,1-.471-1.649,2.788,2.788,0,0,1,.159-.981,2.276,2.276,0,0,1,.432-.733,1.769,1.769,0,0,1,.632-.451,1.814,1.814,0,0,1,.739-.16,1.988,1.988,0,0,1,.634.083,3.852,3.852,0,0,1,.5.21V262.51h1.381v6.023Z" transform="translate(-1383.827 -205.553)" fill="#fff"/>
  <path id="Caminho_136" data-name="Caminho 136" d="M1650.247,271.826a1.045,1.045,0,0,0,.2-.4,2.428,2.428,0,0,0,.066-.65,2.525,2.525,0,0,0-.069-.642,1.09,1.09,0,0,0-.192-.414.65.65,0,0,0-.292-.225,1.037,1.037,0,0,0-.373-.065,1.066,1.066,0,0,0-.353.054.724.724,0,0,0-.3.217,1.069,1.069,0,0,0-.2.414,2.389,2.389,0,0,0-.077.66,2.581,2.581,0,0,0,.067.619,1.088,1.088,0,0,0,.192.42.731.731,0,0,0,.291.22,1.023,1.023,0,0,0,.389.07.974.974,0,0,0,.358-.065A.628.628,0,0,0,1650.247,271.826Zm1.7-1.056a2.278,2.278,0,0,1-.619,1.691,2.748,2.748,0,0,1-3.468,0,2.627,2.627,0,0,1,.005-3.387,2.747,2.747,0,0,1,3.468.005A2.294,2.294,0,0,1,1651.943,270.77Z" transform="translate(-1399.739 -209.962)" fill="#fff"/>
  <path id="Caminho_137" data-name="Caminho 137" d="M1683.91,267.158a1.657,1.657,0,0,1-.714,1.385,3.175,3.175,0,0,1-1.938.531,5.4,5.4,0,0,1-1.233-.124,6.472,6.472,0,0,1-.985-.321v-1.38h.161a3.428,3.428,0,0,0,1.02.565,3.261,3.261,0,0,0,1.082.2,3.51,3.51,0,0,0,.353-.023,1.387,1.387,0,0,0,.355-.078.9.9,0,0,0,.279-.173.415.415,0,0,0,.107-.311.426.426,0,0,0-.159-.326,1.1,1.1,0,0,0-.465-.21c-.213-.052-.44-.1-.678-.145a5.273,5.273,0,0,1-.67-.173,2.116,2.116,0,0,1-1.036-.64,1.594,1.594,0,0,1-.314-1,1.553,1.553,0,0,1,.711-1.315,3.093,3.093,0,0,1,1.836-.51,5.7,5.7,0,0,1,1.11.111,5.057,5.057,0,0,1,.951.277v1.328h-.158a2.963,2.963,0,0,0-.844-.466,2.835,2.835,0,0,0-1.018-.189,2.476,2.476,0,0,0-.365.026,1.486,1.486,0,0,0-.35.093.677.677,0,0,0-.256.176.392.392,0,0,0-.107.269.412.412,0,0,0,.171.352,1.949,1.949,0,0,0,.652.223c.21.042.409.085.6.127a6.136,6.136,0,0,1,.621.171,2.074,2.074,0,0,1,.967.59,1.464,1.464,0,0,1,.312.968Z" transform="translate(-1423.407 -205.99)" fill="#fff"/>
  <path id="Caminho_138" data-name="Caminho 138" d="M1705.885,273.328H1704.5v-.479a4.13,4.13,0,0,1-.7.445,1.7,1.7,0,0,1-.757.153,1.416,1.416,0,0,1-1.095-.414,1.737,1.737,0,0,1-.384-1.222v-2.83h1.381v2.157c0,.218.008.4.02.546a.977.977,0,0,0,.1.362.442.442,0,0,0,.218.21,1.039,1.039,0,0,0,.412.065,1.339,1.339,0,0,0,.391-.065,1.7,1.7,0,0,0,.412-.194V268.98h1.381Z" transform="translate(-1440.175 -210.348)" fill="#fff"/>
  <path id="Caminho_139" data-name="Caminho 139" d="M1723.52,268.533h1.381V262.51h-1.381Z" transform="translate(-1456.511 -205.553)" fill="#fff"/>
  <path id="Caminho_140" data-name="Caminho 140" d="M745.181,42.55v60.375a5.225,5.225,0,0,1-5.187,5.241H715.74a1.786,1.786,0,0,0-1.276.831l-1.785,3.553-2.292-3.413a2.3,2.3,0,0,0-1.373-.971h-24.35a5.223,5.223,0,0,1-5.184-5.241V42.55Z" transform="translate(-679.48 -42.55)" fill="#fff" fill-rule="evenodd"/>
  <path id="Caminho_141" data-name="Caminho 141" d="M749.214,50.82v58.234a3.1,3.1,0,0,1-3.071,3.1H721.887a3.545,3.545,0,0,0-3.332,2.478,3.866,3.866,0,0,0-3.394-2.478h-24.35a3.1,3.1,0,0,1-3.071-3.1V50.82h61.474Z" transform="translate(-685.628 -48.679)" fill="#00509b" fill-rule="evenodd"/>
  <path id="Caminho_142" data-name="Caminho 142" d="M767.157,132.477v3.3c3.931,2.028,10.6,1.986,14.859-.018v-3.3l3.849-1.771c.187-.148.245-.383.123-.738l-.123-.43V126.56c.01-.363-.159-.546-.506-.549h-1.514c-.614,0-.752-.365-.294-.943q1.139-2.812-1.535-5.785a1.123,1.123,0,0,1-.662-1.08,2.686,2.686,0,0,0-.778-1.763c-.01-.616-.151-1.435-.57-1.515l.038-.236-.161-.3a1.523,1.523,0,0,0-.064-.891,7.024,7.024,0,0,0,1.575-1.321,2.308,2.308,0,0,0,.033.883,9.651,9.651,0,0,0,.345,1.15,3.189,3.189,0,0,1,.113,2.279,2.922,2.922,0,0,0,.481,2.051,2.33,2.33,0,0,0,2.32,1.01,7.04,7.04,0,0,1,.115-3.493l.123-.8-.041-2.359a2.952,2.952,0,0,1,.31-1.181l.35-1.085c3.373-13.248-10.954-18.836-17.46-11.984a4.455,4.455,0,0,1,2.834,1.5c.366.513.146.834-.335.678a10.455,10.455,0,0,0-1.279-.269,3.869,3.869,0,0,0-.8-.122l-.108.005-.1.01-.092.016-.082.023-.074.034-.064.041-.051.052-.033.065-.013.075.005.08.028.085.043.088c.033.078.064.158.095.238.021.06.038.119.059.181s.033.119.049.179.028.119.041.179.02.119.028.179.015.117.02.176l.008.176c0,.06,0,.117,0,.176s-.008.117-.013.174c-.008.075-.018.145-.031.218l-.3.293c-.026.034-.051.067-.077.1a1.262,1.262,0,0,0-.069.109c-.02.039-.041.078-.059.117s-.036.083-.051.124l-.023.088-.02.093-.015.1-.008.1,0,.1.005.109.013.114.018.117.028.122.033.132a1.467,1.467,0,0,1,.077.21.583.583,0,0,1,.01.093.431.431,0,0,1-.01.1.835.835,0,0,1-.046.155l-.069.091-.064.1-.054.1-.049.1-.038.1-.031.1-.023.1-.02.1-.01.093-.005.1v.093l0,.093.005.091.01.093.026.181.077.443.026.176.008.085.005.088,0,.085,0,.085-.005.085-.01.085-.018.085-.023.085-.028.085c-.059.114-.118.225-.179.337-.072.127-.146.254-.223.378-.084.14-.174.277-.266.414-.182.272-.366.536-.55.805-.008.023-.018.047-.026.073a.549.549,0,0,0-.023.093.489.489,0,0,0-.008.088c0,.031,0,.06.005.088s.01.057.018.085.018.052.028.078.026.047.041.07.033.041.051.062.033.031.051.047a4.132,4.132,0,0,1,.409.386,1.373,1.373,0,0,1,.092.122l.015.028.01.028.01.031.005.036.008.075v.088c-.005.132-.02.262-.026.394v.1l0,.049,0,.052.008.049.01.049.015.049.018.047.023.047.026.041.033.041.036.039.041.036.049.031.021.01a.715.715,0,0,0-.092.085l-.043.052-.036.054-.026.054-.021.057-.013.06,0,.062.005.06.013.065.018.062a.639.639,0,0,0,.044.1c.018.036.036.067.056.1s.038.057.056.085l.018.041.013.052.005.062a.715.715,0,0,1,0,.1c0,.039-.005.078-.01.117-.013.083-.028.163-.049.243l-.018.08c-.033.122-.072.241-.112.357-.01.034-.021.067-.028.1s-.013.067-.018.1,0,.067-.005.1,0,.065.008.1.01.062.018.093l.031.091a.969.969,0,0,0,.043.088c.018.028.036.057.054.083s.043.054.066.078a.709.709,0,0,0,.077.075l.059.047.12.075.125.067.13.062.135.057.141.052.143.049.225.062c.082.018.159.034.238.049s.166.031.248.041.174.023.258.034l.269.023c.146.008.361.016.506.018.056.122.11.241.159.36a8.611,8.611,0,0,1,.281.888.469.469,0,0,0,.013.049v0a12.748,12.748,0,0,1,.258,1.357c.051.357-.038.544-.266.562a11.531,11.531,0,0,0-3.568,1.823c-1.463,1.168-1.885,2.514-.632,4.146.263.445.118.686-.432.676l-1.806-.031c-.417,0-.614.2-.593.6l.072,2.053a3.644,3.644,0,0,1-.184,1.194c-.184.417-.184.756.09.974Z" transform="translate(-741.631 -81.944)" fill="#122e4e" fill-rule="evenodd"/>
  <path id="Caminho_146" data-name="Caminho 146" d="M798.8,127.209Z" transform="translate(-768.284 -105.284)" fill="#718fc8" fill-rule="evenodd"/>
  <path id="Caminho_147" data-name="Caminho 147" d="M804.983,121.256c-.01-.005-.015-.013-.023-.016a.2.2,0,0,1,.036.005C804.991,121.25,804.986,121.253,804.983,121.256Z" transform="translate(-772.869 -100.864)" fill="#718fc8" fill-rule="evenodd"/>
  <path id="Caminho_148" data-name="Caminho 148" d="M809.65,131.46l.015.008c.015.029.031.052.046.075C809.691,131.517,809.671,131.486,809.65,131.46Z" transform="translate(-776.36 -108.437)" fill="#718fc8" fill-rule="evenodd"/>
  <path id="Caminho_160" data-name="Caminho 160" d="M730.294,62.207l-1.77-.241-.435-2.134a25.737,25.737,0,0,0-4.215,0l-.373,2.154-1.793.241-.964-1.978a25.638,25.638,0,0,0-4.056,1.119l.179,2.154-1.657.707-1.455-1.637a25.189,25.189,0,0,0-3.624,2.139l.739,2.028-1.43,1.121-1.8-1.214a28.78,28.78,0,0,0-2.974,3.006l1.233,1.787-1.1,1.432-2.064-.7a29.693,29.693,0,0,0-2.089,3.687l1.642,1.4-.69,1.683-2.166-.135a28.053,28.053,0,0,0-1.092,4.073l1.959.935-.243,1.807-2.125.448a28.911,28.911,0,0,0,.008,4.236l2.125.381.235,1.8-1.951.987a30.5,30.5,0,0,0,1.1,4.094l2.153-.2.7,1.683-1.657,1.473a39.8,39.8,0,0,0,2.148,3.646l2.023-.728,1.084,1.44-1.179,1.833a31.273,31.273,0,0,0,2.969,2.988l1.762-1.243,1.427,1.119-.683,2.072a30.082,30.082,0,0,0,3.632,2.118l1.386-1.657,1.662.7-.12,2.18a26.223,26.223,0,0,0,4.046,1.1l.918-1.971,1.79.238.435,2.139a25.775,25.775,0,0,0,4.194,0l.384-2.139,1.788-.243.972,1.955a22.466,22.466,0,0,0,4.049-1.1l-.182-2.173,1.66-.686,1.455,1.637a27.626,27.626,0,0,0,3.619-2.131l-.724-2.051,1.414-1.106,1.808,1.207a28.558,28.558,0,0,0,2.969-3.014l-1.225-1.784,1.092-1.427,2.056.7a35.857,35.857,0,0,0,2.1-3.68l-1.647-1.406.7-1.675,2.171.129a31.077,31.077,0,0,0,1.079-4.094l-1.949-.924.24-1.823,2.11-.438a25.667,25.667,0,0,0,0-4.229l-2.12-.375-.23-1.8,1.944-.994a26.929,26.929,0,0,0-1.115-4.109l-2.135.207-.66-1.675,1.586-1.458a28.494,28.494,0,0,0-2.123-3.682l-2,.754-1.1-1.458,1.2-1.823a30.862,30.862,0,0,0-2.974-3l-1.762,1.251-1.44-1.106.683-2.077a28.518,28.518,0,0,0-3.621-2.116l-1.378,1.652-1.68-.691.133-2.188a23.963,23.963,0,0,0-4.066-1.106l-.91,1.973Zm-4.248,4.223,1.1.028,1.092.085,1.074.137,1.059.192,1.038.246,1.018.293,1,.344.977.388.951.438.926.482.9.526.872.567.841.609.813.647.78.686.747.72.711.759.675.79.637.823.6.855.56.883.519.911.473.937.43.963.386.989.338,1.007.289,1.033.238,1.051.189,1.069.138,1.085.082,1.1.028,1.119-.028,1.116-.082,1.1-.138,1.085-.189,1.069-.238,1.049-.289,1.031-.338,1.01-.386.987-.43.961-.473.937-.519.909-.557.883-.6.852-.639.821-.675.79-.711.756-.747.72-.78.684-.811.645-.844.609-.872.564-.9.523-.926.482-.951.435-.977.391-1,.342-1.018.293-1.038.243-1.059.192-1.074.137-1.092.085-1.1.028-1.1-.028-1.092-.085-1.077-.137-1.059-.192-1.041-.243-1.02-.293-1-.342-.977-.391-.954-.435-.929-.482-.9-.523-.875-.567-.846-.606-.813-.645-.785-.684-.749-.722-.714-.754-.678-.79-.642-.821-.6-.855-.563-.88-.522-.911-.476-.935-.435-.963-.386-.987-.34-1.007-.289-1.031-.243-1.049-.189-1.069-.138-1.088-.082-1.1-.031-1.116.031-1.119.082-1.1.138-1.088.189-1.069.243-1.051.289-1.031.34-1.01.386-.987.435-.963.476-.937.522-.914.563-.883.6-.852.642-.823.678-.792.716-.756.747-.722.785-.686.813-.647.846-.609.875-.567.9-.526.929-.482.954-.435.977-.391,1-.344,1.02-.293,1.043-.246,1.056-.192,1.077-.137,1.092-.085,1.1-.028Z" transform="translate(-693.16 -55.293)" fill="#122e4e" fill-rule="evenodd"/>
  <g id="Grupo_1" data-name="Grupo 1" transform="translate(5.456 5.151)">
    <path id="Caminho_143" data-name="Caminho 143" d="M808.162,160.6c-.279-1.169-.576-2.193-1.353-2.6.266-2.585-2.279-.582-.5.361a4.059,4.059,0,0,0-.008,1.187,3.662,3.662,0,0,1-.192,2.284,3.541,3.541,0,0,0,.123,2.037c.138-.239.294-.312.473-.218a4.944,4.944,0,0,0,.054.694,2.713,2.713,0,0,0,1.327,2.572c.087.034.13.127.061.255a3.672,3.672,0,0,1-.67.766,1.652,1.652,0,0,0-.537,1.117,1.272,1.272,0,0,0,.7-.6.973.973,0,0,0,.782-1.294,7.877,7.877,0,0,1-.742-1.372c-.077-.3-.01-.46.194-.486a7.993,7.993,0,0,0,1.412,2.317,3.984,3.984,0,0,1-1.069,1.335,2.981,2.981,0,0,0-1.2,1.725l-.534.205q.292.588,1.847.062a1.515,1.515,0,0,1,.583-1.166,1.7,1.7,0,0,0,.755-1.091l.074.047-.281.73a2.44,2.44,0,0,0-.606.9c-.655,1.065,1.473.93,1.9.353a1.814,1.814,0,0,1-.765-1.943,1.312,1.312,0,0,0,.182-1.164,17.218,17.218,0,0,0-1.138-1.655c.353.288.936.551,1,1.125a1.2,1.2,0,0,0,.6.675c-.667.533-.217,2.491.611,2.642.082-.184,0-.39-.24-.611a.48.48,0,0,1,.557.117c-.156,1.561,2.256,2.3,1.437-.07.407.192.552-.039.271-.291l-.882-.626c-.414-.221-.4-.751-.023-1.535l.092-.016c.074.914.361,1.473.859,1.668-.13-.6.424-.722.527-.14l-.087,1.244c-.061,1.026.652,1.07.611,0l-.069-.878c.238-.343.427-.569.509-.525l-.192.73c-.35.977.468.946.573-.517a4.278,4.278,0,0,0-.706-2.681,1.181,1.181,0,0,0,.179.777c.238.785-.519.933-.627.109l.031-.572a1.557,1.557,0,0,1-.154-.925,1.857,1.857,0,0,1-.4-.94c.026-.242-.182-.507-.563-.709-.325-.787-.731-1.031-1.192-.9-.189.026-.215.114-.077.257a3.409,3.409,0,0,1,1.708,2.3l.092.281c-.2.112-.2.3-.107.527a.745.745,0,0,1-.348.1.511.511,0,0,1-.077-.517,1.233,1.233,0,0,0-.711-1.33l-.054.125c.072.117.077.2.021.242a1.241,1.241,0,0,1,.274.421c.059.088.044.145-.008.19a3.141,3.141,0,0,1,.332.87h0a1.138,1.138,0,0,1,.378.5.923.923,0,0,0,.535.636.959.959,0,0,1,.34.743c-.683-.013-1.225-.86-1.7-1.8a1.069,1.069,0,0,0-.7-.533c-.45-.377-.1-1.039.425-.436.23-.743-.417-1.338-1.662-1.829.038.161.171.3.44.423l-.031.117a2.918,2.918,0,0,1-1.6-.857c-.995-1.811,1.343-.792,1.918.325.182-.9-.7-1.743-1.711-1.972l-1.074-.943-.059.608-.274.021a1.969,1.969,0,0,1,.409,1.5c-.061.2-.13.216-.21.047l-.263-.377.033.478c-.384-.036-.494-.527-.373-1.148a1.558,1.558,0,0,1,.118-1.883l.424.408Zm-.969,3.912a2.246,2.246,0,0,1,1.535,1.076c-.113-.133-.223-.26-.335-.377a1.589,1.589,0,0,0-.862-.182Z" transform="translate(-778.857 -132.304)" fill="#bc9b29" fill-rule="evenodd"/>
    <path id="Caminho_144" data-name="Caminho 144" d="M783.333,116.07c3.368.052,7.34,3.694,8.805,8.087a1.32,1.32,0,0,0-.87.462,16.137,16.137,0,0,0-2.905-4.453l-.077.244a2.33,2.33,0,0,0,.634.8,2.949,2.949,0,0,1,.565.733,1.969,1.969,0,0,1-.473-.083l.021.257a2.845,2.845,0,0,1-.624-.577.9.9,0,0,0,.417.709c.34.247.68.457,1.02.66a.894.894,0,0,1,.261.333c-.389.106-.348.333.074.639.031.023.072.039.107.062-.189.068-.294.533-.174.779a3.084,3.084,0,0,1,.3.665l.153-.384.307-.088.1.229a1.251,1.251,0,0,0,.2,1.224,3.583,3.583,0,0,0-.448,1.774,2.639,2.639,0,0,1-.529-2.071c0-.132-.079-.151-.24-.057-.2-.005-.292-.164-.31-.423-.043-.158-.281-.034-.217.117a.8.8,0,0,0,.082.125,1.048,1.048,0,0,1,.22.338l0,.242h-.23a2.15,2.15,0,0,0-.355-.475.561.561,0,0,0-.1-.12,3.078,3.078,0,0,1-.348-.3c-.087-.1-.225-.179-.315-.265l-.038-.083a.837.837,0,0,0-.361-.837.383.383,0,0,1-.112-.081l-.082-.086a.491.491,0,0,1,.721-.068,1.487,1.487,0,0,1,.384.842.645.645,0,0,0-.159-.977,1.993,1.993,0,0,1-.711-.151c-.182-.145-.056-.46.23-.343.384.179.235-.335-.133-.338a1.4,1.4,0,0,0-.414.065.692.692,0,0,1-.66-.213c.217-.158.261-.314.049-.465-.5-.361-.251-.79.217-.733l.373.223c.2.117.312-.065.115-.239a2.956,2.956,0,0,0-.524-.322l-.23-.322a.77.77,0,0,1-.627.268c-.4-.073-.322-.449.128-.421.159-.013.123-.184-.018-.148-.235.052-.317.156-.453.179a.46.46,0,0,1-.524-.242,1.44,1.44,0,0,1-.107-.577l.317-.174a1.61,1.61,0,0,0-.992-.132l-.386,0a.816.816,0,0,1,.772-.559.913.913,0,0,0-1.02.093.829.829,0,0,0-.918.364h-.176c-.32-.92-.028-1.387.721-1.512-.125.384-.036.559.368.421l.56-.125a.516.516,0,0,1,.248.208.933.933,0,0,0,.486.171l.867.107.182.278.164.109.225-.016c.018.4.268.587.678.647a.583.583,0,0,0,.486.824l-.125-.483.026-.649a7.071,7.071,0,0,0-4.389-2.026A5.34,5.34,0,0,0,783.333,116.07Z" transform="translate(-761.921 -102.202)" fill="#bc9b29" fill-rule="evenodd"/>
    <path id="Caminho_145" data-name="Caminho 145" d="M818.507,160.968c.248-.782.125-1.179-.217-1.322-.389-.2-.885.379-.491.712.084-.192.092-.2.279-.275.292.114.263.585.235.842-2.164.133-2.678-3.645-2.616-3.824-.995,1.832.437,4.629,1.834,4.965.2-1.473,1.652-.979,1.366-.231a.361.361,0,0,1-.721-.018c-.133.065-.148.122-.151.3,1.1,1.694,1.762-1.034.483-1.148Z" transform="translate(-786.069 -132.573)" fill="#bc9b29" fill-rule="evenodd"/>
    <path id="Caminho_149" data-name="Caminho 149" d="M795.01,108.213a2.618,2.618,0,0,1,.4,1.382l.87-.252.852-.164.823-.083.8,0,.767.07.737.143.7.205.667.268.629.322.588.372.547.421.506.462.46.5.414.53.368.559.317.579.269.6.217.613.161.626.1.629.049.631-.01.629-.074.621-.136.608-.013.042c3.626-6.113-3.161-13.319-11.018-10.306Z" transform="translate(-770.92 -95.862)" fill="#bc9b29" fill-rule="evenodd"/>
    <path id="Caminho_150" data-name="Caminho 150" d="M816.668,149.234a.438.438,0,1,1-.432.436A.435.435,0,0,1,816.668,149.234Zm0-.494a.93.93,0,1,1-.918.93A.927.927,0,0,1,816.668,148.74Z" transform="translate(-786.356 -126.385)" fill="#bc9b29" fill-rule="evenodd"/>
    <path id="Caminho_151" data-name="Caminho 151" d="M803.032,123.779a1.361,1.361,0,0,1,.563,2.1l.005.021.118.668.1.683.056.559c7.061-3.058,1.959-14.85-7.041-11.841l.32.169.414.247.414.273.4.3.4.322.389.343.381.366.371.39.361.41.348.431.335.455.325.473.307.494.3.512.276.533.261.551.246.569.225.585Z" transform="translate(-772.274 -101.77)" fill="#bc9b29" fill-rule="evenodd"/>
    <path id="Caminho_152" data-name="Caminho 152" d="M819.138,156.91a17.225,17.225,0,0,1,.233,1.748l-.624.236q-.173-.97-.427-1.883a1.236,1.236,0,0,0,.261.026A1.256,1.256,0,0,0,819.138,156.91Z" transform="translate(-788.268 -132.433)" fill="#bc9b29" fill-rule="evenodd"/>
    <path id="Caminho_153" data-name="Caminho 153" d="M786.153,173.848c0-.068.09-.078.141-.068.013.026.092.405.23.338.68-1.289-.245-3.133-.57-4.494a5.7,5.7,0,0,0,3.557-1.683.5.5,0,0,1,.207.473,11.581,11.581,0,0,0-.3,1.941c.059,1.083,1.325,2.582,1.182,3.312h0v0h0v0C789.143,178.532,780.445,177.924,786.153,173.848Z" transform="translate(-762.899 -140.597)" fill="#bc9b29" fill-rule="evenodd"/>
    <path id="Caminho_154" data-name="Caminho 154" d="M787.45,100.049c7.158-5.479,18.866.974,15.659,12.252-.248.782-.752,1.25-.606,2.377.424,1.657-1.248,4.1-.253,6.284a2.285,2.285,0,0,1-1.624-2.923,3.31,3.31,0,0,0-.166-2.271c-.256-.938-.757-1.5-.176-2.416a1.341,1.341,0,0,1,.969-.065h0l.146.08.087-.161-.146-.081h0c-.279-.156-.381-.569-.463-.863l.015-.031a1.355,1.355,0,0,1,.954-.192h0l.154.06.066-.171-.153-.06h-.005c-.294-.117-.45-.512-.568-.792a.144.144,0,0,1,.01-.031,1.35,1.35,0,0,1,.921-.32h0l.159.042.043-.179-.159-.039h0c-.312-.078-.517-.452-.67-.717a.093.093,0,0,1,.005-.026c.23-.2.552-.481.87-.452h0l.164.018.015-.184-.161-.016h-.005c-.317-.031-.573-.374-.762-.613v-.026c.2-.231.473-.564.793-.582h0l.164-.01-.01-.182-.164.008h0c-.317.021-.621-.278-.844-.483l-.008-.036c.164-.257.386-.626.7-.691,0,0,0,0,.005,0h0l.161-.034-.038-.179-.161.034h0c-.312.068-.66-.182-.911-.353a.021.021,0,0,1-.005-.013c.12-.281.286-.683.586-.8v0h0l.153-.057-.061-.171-.156.057s0,0,0,0a1.346,1.346,0,0,1-.959-.21s0,0,0-.005c.077-.3.174-.725.45-.886l0,0h0l.143-.083-.09-.158-.143.083a0,0,0,0,0,0,0,1.357,1.357,0,0,1-.977-.052l0,0a1.412,1.412,0,0,1,.312-.948h0l.128-.107-.113-.143-.128.107h0a1.362,1.362,0,0,1-.979.1,1.413,1.413,0,0,1,.164-.985h0l0,0,.11-.122-.136-.122-.11.122a0,0,0,0,1,0,0,1.347,1.347,0,0,1-.941.255.035.035,0,0,1-.01-.008,1.4,1.4,0,0,1,.015-.995v0h0l.092-.14-.151-.1-.092.138v0c-.179.27-.6.338-.9.395a.058.058,0,0,0-.013-.008,1.414,1.414,0,0,1-.133-.987v0h0l.069-.151-.164-.078-.069.151v0c-.136.3-.54.426-.829.527l-.008,0a1.4,1.4,0,0,1-.274-.959v-.005l.046-.158-.174-.052-.046.158v0c-.092.312-.478.5-.744.644a.023.023,0,0,1-.013,0c-.182-.244-.45-.59-.4-.909v0h0l.026-.166-.179-.029-.025.166v0c-.049.322-.407.566-.652.746h-.005c-.212-.221-.527-.525-.519-.852v0h0l0-.166-.182-.005,0,.169v0c-.005.325-.327.613-.547.824-.238-.192-.583-.455-.616-.779v0h0l-.018-.166L792,99.1l.015.166h0l0,0c.033.322-.253.649-.445.886-.005,0-.008,0-.01,0-.256-.164-.632-.387-.7-.707h0l-.036-.164-.179.039.038.164v0c.069.317-.176.67-.34.93-.271-.138-.665-.32-.765-.629,0,0,0,0,0,0h0l-.051-.158-.171.057.051.158h0v0a1.4,1.4,0,0,1-.243.956l-.038-.055a3.336,3.336,0,0,0-1.675-.707Z" transform="translate(-765.293 -88.876)" fill="#bc9b29" fill-rule="evenodd"/>
    <path id="Caminho_155" data-name="Caminho 155" d="M784.641,138.625l-.036,0a.3.3,0,0,1-.044.018l-.061.005-.092-.205h-.021l-.038-.065c-.026-.039-.056-.075-.079-.117l-.028-.042h-.02l-.049-.068-.1-.1c-.038-.029-.079-.062-.12-.094s-.077-.052-.118-.078a1.1,1.1,0,0,1-.184-.125c-.123-.107-.251-.205-.368-.314l-.1-.1-.1-.12-.023-.016-.038-.039a.565.565,0,0,1-.043-.065c-.031-.052-.061-.1-.087-.156s-.049-.1-.072-.156l-.043-.138-.043-.255c-.026-.156-.038-.314-.061-.473-.005-.016-.005-.031-.01-.049-.038-.088-.079-.174-.12-.262-.023-.034-.046-.068-.072-.1l-.072-.1-.008-.016h-.021l-.1-.135-.189-.226-.031-.042-.036-.086a3.959,3.959,0,0,1-.123-.387c-.036-.148-.067-.3-.1-.447a.5.5,0,0,1-.023-.094l-.066-.125c-.033-.052-.072-.1-.107-.158l-.138-.171-.01-.018-.026-.029-.069-.062c-.051-.034-.1-.068-.159-.1a4.275,4.275,0,0,0-.389-.205l-.115-.065c-.1-.06-.2-.122-.3-.187-.026-.021-.054-.042-.082-.065l-.015-.016-.013-.021c-.049-.034-.094-.073-.141-.112s-.069-.052-.107-.075l-.036-.021-.018-.036-.028-.031-.036-.031-.043-.034-.051-.034a1.713,1.713,0,0,0-.154-.081c-.064-.031-.13-.057-.2-.083-.041-.016-.082-.031-.123-.044l-.1-.031c-.061-.01-.12-.016-.182-.021l-.166-.008-.1.005-.095.013-.084.021-.079.029-.072.034-.072.047-.067.049-.061.062-.064.07c-.038.057-.079.112-.115.171s-.056.1-.084.156l-.033.057-.084.265c0,.073-.01.148-.008.223v.1l.044.333c.028.184.064.369.09.553a2.848,2.848,0,0,1,.038.335c0,.039,0,.078.005.12l-.013,0a2.653,2.653,0,0,1-.33,1.026l-.938,1.439c-.067.107-.092.148-.023.275s.289.257.4.374c.043.049.087.1.128.153l.023.034a1.113,1.113,0,0,1,.061.107,1.676,1.676,0,0,1,.1.569c-.067.439-.307.727,1.13.824.159.026.123.325-.005.325a2.9,2.9,0,0,0-1,.026l-.026.013-.021.013-.02.016-.015.016-.013.018-.01.021-.008.021-.005.023,0,.021,0,.021.005.021.008.023.054.083a2.838,2.838,0,0,1,.148.273c.013.081.023.156.031.229,0,.052-.005.1-.01.158l-.015.13c-.01.062-.023.125-.036.187-.031.13-.069.255-.1.382l-.021.1a1.335,1.335,0,0,0-.02.133v.083l.005.036.008.039.013.036.015.036.018.036.026.036.028.036.036.036.043.039.046.036.056.039.064.036.067.039c.095.039.192.073.289.1a3.045,3.045,0,0,0,.3.083,5.439,5.439,0,0,0,3.565-.3c.161-.068.32-.145.473-.223l.274-.171a.53.53,0,0,0,.061-.013l0-.021c.018-.016.033-.034.054-.049s.061-.047.095-.07.079-.057.118-.088a.115.115,0,0,0,.023-.026l.013-.026.051-.036a1.358,1.358,0,0,0,.228-.257,1.525,1.525,0,0,0,.084-.138c.049-.073.095-.148.141-.223l.031-.057.072-.021.044-.005.089-.005.036.005.013-.1a1.666,1.666,0,0,0,0-.2c-.008-.093-.018-.184-.031-.275,0-.158-.005-.317.005-.475,0-.034,0-.065,0-.1.005-.049.008-.1.018-.153.005-.031.013-.062.018-.094s.023-.078.038-.117.023-.055.036-.083l.046-.075.049-.07c.036-.031.067-.062.1-.091l.02-.016.182-.1-.061.192h0Zm-5.56-2.663h0a.417.417,0,0,1-.056.005.019.019,0,0,0-.008.018c-.407-.257-.266-.465-.317-.87a.858.858,0,0,0-.169-.255.8.8,0,0,1,.008-.691c0-.252-.442-.161-.368-.418.338-.346,1.069-.247,1.509-.127.107.057.215.114.322.166a2.231,2.231,0,0,1,.785,1.037.165.165,0,0,1-.015.07h-.056a7.3,7.3,0,0,1-.747-.509c-.233-.081-.248-.049-.215.184.136.314.706.514.706.927a1.094,1.094,0,0,0-.151.062c-.491-.039-.785.338-1.228.4Zm-1.348,1.85c-.215-.107-.361-.205-.376-.34C777.454,137.168,778.408,137.924,777.733,137.812Z" transform="translate(-757.293 -114.083)" fill="#bc9b29" fill-rule="evenodd"/>
    <path id="Caminho_156" data-name="Caminho 156" d="M778.66,189.98c-3.161.585-6.332,4.011-1.662,5.575a9.674,9.674,0,0,0,6.81-.738,3.239,3.239,0,0,1,.509-1.07h0a1.1,1.1,0,0,1-.125.057l-.527.205c.023-.2.046-.4.074-.605l.023-.14a3.921,3.921,0,0,1,.2-.616l.044-.008.1-.148.026-.075a4.847,4.847,0,0,0,.414-.382l.051-.065.021-.073.056-.044-.2-.117-.1-.086-.266-.4a6.159,6.159,0,0,1-5.445,2.993C775.218,194.173,775.632,191.344,778.66,189.98Z" transform="translate(-755.757 -156.911)" fill="#bc9b29" fill-rule="evenodd"/>
    <path id="Caminho_157" data-name="Caminho 157" d="M768.917,218.021c-.588-.029-1.182-.029-1.757-.036-.038-1-.013-1.974-.008-2.951,1.6,0,3.192.008,4.793.013.036-.005.067-.013.1-.021,1.248.029,2.552.049,3.826.049a4.793,4.793,0,0,1,1.44.029c.5-.008,1.013-.016,1.514-.016.271.029.57-.062.87-.013.852-.013,1.133-.029,1.821-.029a.664.664,0,0,0,.238,0c1.023.008,2.084.049,3.13-.034a3.883,3.883,0,0,0,.755-.013c1.537,0,1.537,0,2.455.021,0,.964-.005,1.933-.005,2.9-2.427.047-4.857.039-7.253-.016-2,.062-3.99.083-5.954.055-.1-.005-.2-.013-.294-.013C771.379,218.006,771.379,218.006,768.917,218.021Z" transform="translate(-750.177 -175.431)" fill="#bc9b29" fill-rule="evenodd"/>
    <path id="Caminho_158" data-name="Caminho 158" d="M768.08,229.35h20.529l-3.071,1.27h-14.4Z" transform="translate(-750.877 -186.054)" fill="#bc9b29" fill-rule="evenodd"/>
    <path id="Caminho_159" data-name="Caminho 159" d="M795.612,239.215V237.16H782.27v2.977a13,13,0,0,0,1.251.468v-1.741a.587.587,0,1,1,1.169,0v2.06c.368.075.737.156,1.1.205v-2.141a.7.7,0,1,1,1.4,0v2.3q.457.031.913.047v-2.351a.817.817,0,0,1,1.632,0v2.333c.312-.01.624-.036.936-.062v-2.271a.7.7,0,1,1,1.4,0v2.089c.361-.06.719-.133,1.079-.21v-2a.587.587,0,1,1,1.169,0v1.689c.432-.138.864-.3,1.3-.465Z" transform="translate(-761.438 -191.835)" fill="#bc9b29" fill-rule="evenodd"/>
    <path id="Caminho_161" data-name="Caminho 161" d="M721.26,117.3q.648.175,1.307.314l.9-1.941,2.867.382.43,2.109a24.557,24.557,0,0,0,2.933,0l.373-2.107,2.867-.392.959,1.938a21.924,21.924,0,0,0,2.829-.774l-.179-2.151,2.665-1.1,1.427,1.608a27.481,27.481,0,0,0,2.534-1.5l-.711-2.019,2.271-1.785,1.777,1.192a28.785,28.785,0,0,0,2.079-2.12l-1.2-1.761,1.76-2.3,2.01.686c.529-.839,1.015-1.707,1.473-2.588l-1.611-1.379,1.118-2.7,2.125.127q.445-1.418.754-2.876l-1.911-.909.384-2.92,2.071-.431a25.394,25.394,0,0,0,.005-2.962l-2.089-.372-.366-2.9,1.9-.979a27.273,27.273,0,0,0-.775-2.886l-2.113.205-1.061-2.707,1.55-1.429a29.444,29.444,0,0,0-1.488-2.593l-1.969.743-1.77-2.343,1.174-1.793c-.66-.733-1.348-1.442-2.077-2.107l-1.726,1.229-2.307-1.777.673-2.047a28.471,28.471,0,0,0-2.529-1.486l-1.353,1.624-2.685-1.112.128-2.164a23.463,23.463,0,0,0-2.842-.777l-.9,1.948-2.852-.387-.427-2.107a25.373,25.373,0,0,0-2.949,0l-.368,2.122-2.875.387-.949-1.948a24.424,24.424,0,0,0-2.836.785l.174,2.122-2.655,1.135-1.432-1.616a24.711,24.711,0,0,0-2.534,1.5l.724,2-2.292,1.806-1.767-1.2a28.722,28.722,0,0,0-2.079,2.112l1.21,1.759-1.765,2.31-2.02-.686c-.529.839-1.023,1.7-1.465,2.588L705.4,79.29,704.291,82l-2.13-.132a27.589,27.589,0,0,0-.76,2.855l1.918.922-.386,2.9-2.084.442a28.781,28.781,0,0,0,.008,2.975l2.084.374.376,2.907-1.91.966q.315,1.457.767,2.873l2.107-.195,1.12,2.712-1.616,1.439q.706,1.313,1.5,2.567l1.987-.717,1.739,2.317-1.153,1.8q.99,1.1,2.079,2.1l1.729-1.224,2.286,1.8-.667,2.034a28.639,28.639,0,0,0,2.54,1.486l1.361-1.629,2.662,1.125-.118,2.148c.506.171,1.015.322,1.527.46Zm6.984-48.672,1.1.029,1.092.086,1.074.138,1.059.192,1.038.247,1.018.294,1,.346.977.39.951.439.926.483.9.527.872.569.841.611.813.649.78.688.747.722.711.761.675.792.637.826.6.857.56.886.519.914.473.94.43.966.386.992.338,1.011.289,1.037.238,1.055.189,1.073.138,1.089.082,1.107.028,1.122-.028,1.12-.082,1.107-.138,1.089-.189,1.073-.238,1.052-.289,1.034-.338,1.013-.386.99-.43.964-.473.94-.519.912-.557.886-.6.855-.639.824-.675.792-.711.759-.747.722-.78.686-.811.647-.844.611-.872.566-.9.525-.926.483-.951.436-.977.392-1,.343-1.018.294-1.038.244-1.059.192-1.074.138-1.092.086-1.1.029-1.1-.029-1.092-.086-1.077-.138-1.059-.192-1.041-.244-1.02-.294-1-.343-.977-.392-.954-.436-.928-.483-.9-.525-.875-.569-.847-.608-.813-.647-.785-.686-.749-.725-.714-.756-.678-.792-.642-.824-.6-.857-.563-.883-.522-.914-.476-.938-.435-.966-.386-.99-.34-1.011-.289-1.034-.243-1.052-.189-1.073-.138-1.091-.082-1.1-.031-1.12.031-1.122.082-1.1.138-1.091.189-1.073.243-1.055.289-1.034.34-1.013.386-.99.435-.966.476-.94.522-.917.563-.886.6-.855.642-.826.678-.795.716-.759.747-.725.785-.688.813-.649.847-.611.875-.569.9-.527.928-.483.954-.436.977-.392,1-.346,1.02-.294,1.043-.247,1.056-.192,1.077-.138,1.092-.086Z" transform="translate(-700.814 -62.69)" fill="#bc9b29" fill-rule="evenodd"/>
  </g>
  <path id="Caminho_162" data-name="Caminho 162" d="M743.164,82.62a22.511,22.511,0,1,1-22.3,22.528,22.41,22.41,0,0,1,22.3-22.528Zm0,.761,1.1.028,1.092.085,1.074.137,1.059.192,1.038.246,1.018.293,1,.344.977.388.951.438.926.482.9.526.872.567.841.609.813.647.78.686.747.72.711.759.675.79.637.823.6.855.56.883.519.911.473.937.43.963.386.989.338,1.007.289,1.033.238,1.051.189,1.069.138,1.085.082,1.1.028,1.119-.028,1.116-.082,1.1-.138,1.085-.189,1.069-.238,1.049-.289,1.031-.338,1.01-.386.987-.43.961-.473.937-.519.909-.557.883-.6.852-.639.821-.675.79-.711.756-.747.72-.78.684-.811.645-.844.609-.872.564-.9.523-.926.482-.951.435-.977.391-1,.342-1.018.293-1.038.243-1.059.192-1.074.137-1.092.085-1.1.028-1.1-.028-1.092-.085-1.077-.137-1.059-.192-1.041-.243-1.02-.293-1-.342-.977-.391-.954-.435-.928-.482-.9-.523-.875-.567-.846-.606-.813-.645-.785-.684-.749-.722-.714-.754-.678-.79-.642-.821-.6-.855-.563-.88-.522-.911-.476-.935-.435-.963-.386-.987-.34-1.007-.289-1.031-.243-1.049-.189-1.069-.138-1.088-.082-1.1-.031-1.116.031-1.119.082-1.1.138-1.088.189-1.069.243-1.051.289-1.031.34-1.01.386-.987.435-.963.476-.937.522-.914L725.3,93l.6-.852.642-.823.678-.792.716-.756.747-.722.785-.686.813-.647.846-.609.875-.567.9-.526.928-.482.954-.435.977-.391,1-.344,1.02-.293,1.043-.246,1.056-.192,1.077-.137,1.092-.085Z" transform="translate(-710.277 -72.244)" fill="#122e4e" fill-rule="evenodd"/>
  <path id="Caminho_163" data-name="Caminho 163" d="M1517.72,131.519h10.956V124.45H1517.72Z" transform="translate(-1303.344 -103.243)" fill="#fff" fill-rule="evenodd"/>
  <path id="Caminho_164" data-name="Caminho 164" d="M1238.68,96.114V58.29h25.043V68.547h-11.838v3.641h10.739V81.88h-10.739v3.977h12.145V96.114Z" transform="translate(-1095.667 -54.214)" fill="#fff" fill-rule="evenodd"/>
  <path id="Caminho_165" data-name="Caminho 165" d="M987.419,70.7a13.494,13.494,0,0,0-3.765-2.662,9.473,9.473,0,0,0-4.041-.883,7.091,7.091,0,0,0-5.309,2.056,7.5,7.5,0,0,0-2.008,5.466,7.306,7.306,0,0,0,1.921,5.319,6.793,6.793,0,0,0,5.143,1.994,10.233,10.233,0,0,0,3.946-.839,20.134,20.134,0,0,0,4.391-2.672L987.26,92.71a24.665,24.665,0,0,1-4.4,1.359,22.359,22.359,0,0,1-9.667-.168,18.45,18.45,0,0,1-4.583-1.763A19.211,19.211,0,0,1,958.56,74.675a20.9,20.9,0,0,1,1.45-7.856,18.907,18.907,0,0,1,4.2-6.378,18.627,18.627,0,0,1,6.46-4.223,21.6,21.6,0,0,1,7.946-1.437,21.2,21.2,0,0,1,4.488.476,20.518,20.518,0,0,1,4.314,1.437Z" transform="translate(-887.187 -51.613)" fill="#fff" fill-rule="evenodd"/>
  <path id="Caminho_166" data-name="Caminho 166" d="M1367.716,82.364h5.6l-1.143-4.285q-.852-3.255-1.154-5.018a26.327,26.327,0,0,1-.384-3.3h-.227a27.322,27.322,0,0,1-.384,3.3q-.315,1.76-1.153,5.018l-1.151,4.285Zm-17.856,13.75,13.35-37.824H1378.2l13.1,37.824h-14.478l-1.2-4.754h-10.156l-1.153,4.754Z" transform="translate(-1178.413 -54.214)" fill="#fff" fill-rule="evenodd"/>
  <path id="Caminho_167" data-name="Caminho 167" d="M1105.251,68.026v7.39h2.095a4.231,4.231,0,0,0,2.951-.945,3.458,3.458,0,0,0,1.038-2.7,3.619,3.619,0,0,0-1.038-2.778,4.153,4.153,0,0,0-2.951-.968Zm-13.2,28.088V58.29h16.938q7.362,0,11.255,3.278c2.593,2.188,3.885,5.347,3.885,9.454a10.779,10.779,0,0,1-1.956,6.642,7.567,7.567,0,0,1-5.281,3.053l10,15.4H1111.8l-6.547-12.478V96.114Z" transform="translate(-986.537 -54.214)" fill="#fff" fill-rule="evenodd"/>
  <path id="Caminho_168" data-name="Caminho 168" d="M1624.27,93.588l4.222-10.433a27.138,27.138,0,0,0,5.061,2.936,10.868,10.868,0,0,0,4.161.93,3.784,3.784,0,0,0,2.135-.52,1.61,1.61,0,0,0,.78-1.416c0-1.033-1.294-1.826-3.892-2.364-.842-.189-1.493-.329-1.967-.432a11.6,11.6,0,0,1-6.3-3.615,9.679,9.679,0,0,1-2.189-6.463,12.457,12.457,0,0,1,4.248-9.772q4.247-3.764,11.135-3.768a23.269,23.269,0,0,1,6.235.842,28.432,28.432,0,0,1,6.187,2.545L1650.06,71.8a16.391,16.391,0,0,0-3.836-2.18,10.306,10.306,0,0,0-3.729-.748,4.094,4.094,0,0,0-2.138.469,1.471,1.471,0,0,0-.754,1.313c0,1.051,1.836,1.981,5.509,2.771.581.14,1.036.243,1.355.313a10.447,10.447,0,0,1,5.979,3.535,9.879,9.879,0,0,1,2.187,6.463,12.888,12.888,0,0,1-4.409,10.1q-4.416,3.923-11.48,3.918a26.019,26.019,0,0,1-7.23-1.041,32.461,32.461,0,0,1-7.243-3.128Zm-14.053,3.18-1.6-14.76c-.1-1.137-.207-2.266-.3-3.395s-.189-2.268-.258-3.4c-.143,1.069-.361,2.2-.634,3.4s-.616,2.465-1.021,3.83l-4.222,14.325h-7.864l-4.223-14.325q-.629-2.047-1.028-3.83c-.269-1.2-.481-2.328-.626-3.4-.087,1.147-.171,2.284-.266,3.405s-.189,2.25-.292,3.387l-1.606,14.76H1573.3l6.281-37.257h13.649l2.616,9.216c.077.287.2.722.376,1.295a57.2,57.2,0,0,1,2.036,9.591h.223c.207-1.574.506-3.258.911-5.039s.933-3.778,1.6-6l2.744-9.06h13.616l5.833,37.257Z" transform="translate(-1344.71 -54.496)" fill="#fff" fill-rule="evenodd"/>
</svg>
